<svg id="34f25759-b407-4347-966d-b189e3ffb096" data-name="Layer 1" xmlns="http://www.w3.org/2000/svg" viewBox="0 0 29.43 29.43"><title>Facebook</title><g id="676b731a-ee26-4e7b-bc7e-eef83a29fa2b" data-name="Mockup-V2.0"><g id="dc41d78b-f9c6-45ed-9f1e-261374f4e51b" data-name="V3"><g id="fdba9211-1ee1-491c-bc49-5193c5841216" data-name="Footer"><g id="4cd46ed9-f9de-4d82-ac89-33a95c4e53e8" data-name="Social"><g id="37401e70-4892-44bf-be55-dc5f2f6d39f9" data-name="FB"><path id="5f0c8bbf-91ab-4df2-b90f-6239a639583a" data-name="Combined-Shape" d="M18.13,29.43V20h1.11c.61,0,1.22,0,1.83,0a.34.34,0,0,0,.27-.2c.17-1.17.32-2.35.47-3.56H18.17c0-1-.06-2,0-3,0-.7.47-1,1.2-1.11C20,12,20.54,12,21.11,12h.81V8.65l-.54-.06a11.5,11.5,0,0,0-4.05.16,4.19,4.19,0,0,0-3,3.78c-.07,1.08,0,2.17-.07,3.25,0,.13,0,.27,0,.44H11V20h3.19v9.45H2.87A2.83,2.83,0,0,1,0,26.6V2.83A2.83,2.83,0,0,1,2.87,0H26.64a2.83,2.83,0,0,1,2.83,2.83V26.6a2.82,2.82,0,0,1-2.83,2.83Z" transform="translate(-0.04)" style="fill:#dcdcdc"/></g></g></g></g></g></svg>
