<svg id="9e0720e5-c37c-4870-8792-9453713d57bd" data-name="Layer 1" xmlns="http://www.w3.org/2000/svg" viewBox="0 0 78 78">
  <title>Forms</title>
  <g id="00159bc4-06ac-49cf-a36a-6236f4e3aefe" data-name="Mockup-V2.0">
    <g id="ece9f9e6-a33a-4530-b102-9660545e1ea2" data-name="V3">
      <g id="78cb1bfe-cdf7-4f46-914c-c0506b80e279" data-name="Group">
        <circle id="1eab5a7b-90e9-41cd-b629-99f763c0dc93" data-name="Oval" cx="39" cy="39" r="37.5" style="fill:none;stroke-width:3px"/>
        <path id="11cd3ace-07a3-482b-83ef-1bbba8d4e033" data-name="Fill-1" d="M30,34.06c0,1.61.75,2.5.75,3a21.34,21.34,0,0,0,.34,4.19c.27,1.05.62,1.77,1.05,1.77s.41-1.36.61-2.34.68-2.24,1.25-2.24,1.06,1.25,1.25,2.24.18,2.34.61,2.34.78-.72,1-1.77A21.34,21.34,0,0,0,37.25,37c0-.48.75-1.37.75-3A2,2,0,0,0,36,32c-.51,0-1.14.29-2,.29S32.51,32,32,32a2,2,0,0,0-2,2.06" transform="translate(-0.5 -0.5)" />
        <path id="69023bbb-87ed-45dd-b904-9d4746cfb120" data-name="Fill-3" d="M40,24.88a1.68,1.68,0,1,1,1.58-1.68A1.63,1.63,0,0,1,40,24.88Zm3-1.68a3,3,0,1,0-6,0H34v2.4A2.33,2.33,0,0,0,36.25,28h7.5A2.33,2.33,0,0,0,46,25.6V23.2Z" transform="translate(-0.5 -0.5)" />
        <path id="9066db6e-bf3e-4989-bce4-05761e5e931d" data-name="Fill-6" d="M44.84,53.75V48.5A1.52,1.52,0,0,1,46.37,47h5.34ZM51,23H47.13v2.25H51a.76.76,0,0,1,.76.75V45.5H46.37a3,3,0,0,0-3,3v5.25H28.05a.76.76,0,0,1-.76-.75V26a.76.76,0,0,1,.76-.75h3.82V23H28.05A3,3,0,0,0,25,26V53a3,3,0,0,0,3.05,3H51a3,3,0,0,0,3-3V26A3,3,0,0,0,51,23Z" transform="translate(-0.5 -0.5)" />
        <polygon id="4f2ab703-5e45-46c4-9886-8cacbcc48751" data-name="Fill-8" points="39.5 33.5 48.5 33.5 48.5 31.5 39.5 31.5 39.5 33.5" />
        <polygon id="0b015525-d85b-47b8-b9e4-ef2d27653eb5" data-name="Fill-10" points="39.5 36.5 48.5 36.5 48.5 34.5 39.5 34.5 39.5 36.5" />
        <polygon id="570ea68b-cad8-45e3-a51d-fe6da2e8dcbb" data-name="Fill-11" points="39.5 40.5 48.5 40.5 48.5 38.5 39.5 38.5 39.5 40.5" />
        <polygon id="976ba8c5-c404-4c7d-880c-721a2e39f2d2" data-name="Fill-12" points="39.5 42.5 48.5 42.5 48.5 40.5 39.5 40.5 39.5 42.5" />
      </g>
    </g>
  </g>
</svg>
