<svg id="6f6bd63a-157f-4ca9-91b7-5baa8c55a47a" data-name="Layer 1" xmlns="http://www.w3.org/2000/svg" xmlns:xlink="http://www.w3.org/1999/xlink" viewBox="0 0 30 30"><defs><mask id="e59bdb03-8477-42aa-bd28-0d0808a7f9c6" x="0" y="0" width="30" height="30" maskUnits="userSpaceOnUse"><g id="c4699d4b-7bdf-432b-8905-62c7d3946022" data-name="mask-2"><polygon id="c95ca7f9-a1d9-4b5e-b6bd-280c98cc3e9e" data-name="path-1" points="0 0 30 0 30 30 0 30 0 0" style="fill:#fff"/></g></mask></defs><title>IG</title><g id="896c4c25-c97b-4f13-b2b4-e46c64af509e" data-name="Mockup-V2.0"><g id="f940ae60-7501-4c4f-9ec0-daf70809d564" data-name="V3"><g id="0fa69e74-c51f-483e-bc4c-829459e95b71" data-name="Footer"><g id="9fd5c57b-3216-4ea8-93f7-34c92575ac5a" data-name="Social"><g id="919c595c-9890-40be-aac1-8d9fc3eb24de" data-name="Group-12"><g style="mask:url(#e59bdb03-8477-42aa-bd28-0d0808a7f9c6)"><path id="25cb54a2-5b37-4b00-b4d7-b6fcacad299d" data-name="Combined-Shape" d="M27.12,30H2.88A2.88,2.88,0,0,1,0,27.12V2.88A2.88,2.88,0,0,1,2.88,0H27.12A2.88,2.88,0,0,1,30,2.88V27.12A2.88,2.88,0,0,1,27.12,30ZM10.51,6A3.88,3.88,0,0,0,6.63,9.92v9a3.88,3.88,0,0,0,3.88,3.88h9a3.88,3.88,0,0,0,3.88-3.88v-9A3.88,3.88,0,0,0,19.49,6Z" style="fill:#dcdcdc"/></g><g style="mask:url(#e59bdb03-8477-42aa-bd28-0d0808a7f9c6)"><path id="ec3f22ad-a552-468e-9594-a9f24861c43d" data-name="Stroke-15" d="M15,11.67A3.33,3.33,0,1,1,11.67,15,3.33,3.33,0,0,1,15,11.67Z" style="fill:none;stroke:#dcdcdc;stroke-linecap:round;stroke-width:3px"/></g><g style="mask:url(#e59bdb03-8477-42aa-bd28-0d0808a7f9c6)"><path id="8156a49b-e420-4083-b0b8-1c220afa7e6f" data-name="Fill-17" d="M20.42,8.33a1.25,1.25,0,1,1-1.25,1.25,1.25,1.25,0,0,1,1.25-1.25" style="fill:#dcdcdc"/></g></g></g></g></g></g></svg>
