<svg id="615ef2a8-5710-44ee-8a8b-e76b6e386d79" data-name="Layer 1" xmlns="http://www.w3.org/2000/svg" viewBox="0 0 29 43">
  <title>Location</title>
  <g id="9cb60a23-89cb-41f2-97b9-8bd7d15e117d" data-name="Mockup-V2.0">
    <g id="576a981e-98c3-4887-bacf-b9957d671624" data-name="V3">
      <path id="7f068647-8ec1-4126-96cd-0f2154a8f446" data-name="Fill-1" d="M14.37,23.69a8.83,8.83,0,0,1-8.72-8.94,8.83,8.83,0,0,1,8.72-8.94,8.83,8.83,0,0,1,8.72,8.94,8.83,8.83,0,0,1-8.72,8.94M14.47,0A14.28,14.28,0,0,0,0,14.62,17.38,17.38,0,0,0,1.19,20.1C5.23,29,8.4,34.07,14.5,43c6.18-9.34,9.61-14.07,13.64-22.9A17,17,0,0,0,29,14.62,14.34,14.34,0,0,0,14.47,0" style="fill:#fff;fill-opacity:0.5375339388847351"/>
    </g>
  </g>
</svg>
