<svg xmlns="http://www.w3.org/2000/svg" viewBox="0 0 678.38 440"><g data-name="Layer 2"><g data-name="Layer 1"><path d="M119 220C119 98.5 217.5 0 339 0v220h220c0 121.5-98.5 220-220 220V220z" fill="#999" opacity=".125"/><path d="M559 220C559 98.5 460.5 0 339 0v220H119c0 121.5 98.5 220 220 220V220z" style="isolation:isolate" fill="#ccc" opacity=".125"/><path d="M20.77 186.7a3.38 3.38 0 0 0 2-.33 1.52 1.52 0 0 0 .32-1.12 7.15 7.15 0 0 0-.32-2c-.24-.74-.44-1.43-.58-2L3.88 125.06a11.42 11.42 0 0 0-1.48-3.35 2.75 2.75 0 0 0-2.4-1.13V119h15v1.58a2.85 2.85 0 0 0-2 .53 2 2 0 0 0-.51 1.44 4.77 4.77 0 0 0 .41 1.78c.26.66.53 1.43.84 2.31l15.43 47.68h.22l15.29-50.18a7.17 7.17 0 0 0 .34-2q0-1.59-1.71-1.59V119h15.81v1.58c-1.36 0-2 .57-2 1.7a5.23 5.23 0 0 0 .34 1.66l.69 2L73 172.69h.23l15.17-47.41a11.42 11.42 0 0 1 .46-1.51 4 4 0 0 0 .22-1.38c0-1.23-.83-1.85-2.51-1.85V119H101v1.58a2.54 2.54 0 0 0-2.17.91 15.28 15.28 0 0 0-1.61 3.57l-18 55.84c-.38 1.14-.67 2-.91 2.63a5.93 5.93 0 0 0-.35 2c0 .8.76 1.19 2.29 1.19v1.58H65.18v-1.6a3.3 3.3 0 0 0 1.88-.33 1.18 1.18 0 0 0 .39-1 6.51 6.51 0 0 0-.44-2.18c-.31-.83-.57-1.61-.81-2.31L50.92 133h-.24l-15.29 49.22c-.15.53-.31 1-.45 1.51a5.21 5.21 0 0 0-.24 1.66c0 .87.77 1.31 2.29 1.31v1.58H20.77v-1.58m103.93-22.24H147l-11.57-27.66-10.73 27.66M107 187.38a2.79 2.79 0 0 0 2.45-.92 11.27 11.27 0 0 0 1.21-2.37l18-47.69a8.13 8.13 0 0 0 .57-2.23 1.48 1.48 0 0 0-.64-1.19 4.14 4.14 0 0 0-2.21-.66V131h18.48v1.58a4.83 4.83 0 0 0-1.76.34 1.24 1.24 0 0 0-.87 1.25 3.15 3.15 0 0 0 .31 1.31c.17.45.34.88.5 1.32l19.52 47.94a6.18 6.18 0 0 0 1 1.79 3.09 3.09 0 0 0 2.52.85V189h-14.33v-1.59a6.34 6.34 0 0 0 2.73-.39 1.28 1.28 0 0 0 .68-1.19 5 5 0 0 0-.22-1.59c-.15-.44-.31-.87-.46-1.31l-4.68-11.06h-27.73l-3.88 10a24.37 24.37 0 0 1-1 2.24 4.12 4.12 0 0 0-.5 1.71 1.3 1.3 0 0 0 .66 1.19 5.33 5.33 0 0 0 2.4.39v1.6H107v-1.59m74 0c1.23 0 2-.25 2.34-.73a5.54 5.54 0 0 0 .52-3v-47.43a5.57 5.57 0 0 0-.52-2.95c-.34-.48-1.11-.73-2.34-.73V131h12.78v1.57c-1.21 0-2 .25-2.33.73a5.56 5.56 0 0 0-.51 2.95v47.43a5.63 5.63 0 0 0 .51 3c.35.48 1.12.73 2.33.73V189H181v-1.58m35 0a3.19 3.19 0 0 0 2.46-.74 4.83 4.83 0 0 0 .62-2.95v-47.48a4.9 4.9 0 0 0-.62-2.95 3.22 3.22 0 0 0-2.46-.73V131h16.66v1.57a6.19 6.19 0 0 0-2.45.33 1 1 0 0 0-.63.86 7.14 7.14 0 0 0 1.26 2.23l30.93 41v-40.74a4.9 4.9 0 0 0-.62-2.95 3.27 3.27 0 0 0-2.46-.73V131h12.55v1.57a3.27 3.27 0 0 0-2.46.73 4.9 4.9 0 0 0-.62 2.95v47.43a4.83 4.83 0 0 0 .62 2.95 3.19 3.19 0 0 0 2.46.74V189H256v-1.58a7.68 7.68 0 0 0 2.74-.26 1 1 0 0 0 .45-.93 1.68 1.68 0 0 0-.39-1.12 14.79 14.79 0 0 1-1-1.25l-32.31-42.54v42.41a4.69 4.69 0 0 0 .64 3 3.12 3.12 0 0 0 2.43.74V189H216v-1.58m87 0a4.05 4.05 0 0 0 2-.33 1.44 1.44 0 0 0 .46-1.25 4.11 4.11 0 0 0-.46-1.65 8.29 8.29 0 0 1-.68-2l-16-46.14a7.62 7.62 0 0 0-1.37-2.69 2.54 2.54 0 0 0-1.94-.73V131h13v1.57c-2.14 0-3.2.48-3.2 1.45a3.21 3.21 0 0 0 .35 1.39 9.14 9.14 0 0 1 .56 1.51l13.81 39.38h.23l12.44-39.51c.15-.54.32-1 .46-1.44a4 4 0 0 0 .23-1.33c0-1-.8-1.45-2.4-1.45V131h13.7v1.57c-1.61 0-2.4.36-2.4 1.07a3.13 3.13 0 0 0 .29 1.31 9.56 9.56 0 0 1 .5 1.57l12.79 39.78h.23l11.76-38.72a14.37 14.37 0 0 1 .46-1.71 5 5 0 0 0 .23-1.59c0-1.13-1-1.71-3-1.71V131h13v1.57a4.37 4.37 0 0 0-2.3.46 3.67 3.67 0 0 0-1.13 1.92l-14.33 47.15c-.14.53-.32 1.12-.51 1.78a6.23 6.23 0 0 0-.28 1.77c0 1.15.79 1.72 2.38 1.72V189h-12.31v-1.58a3.55 3.55 0 0 0 2-.33 1.16 1.16 0 0 0 .4-1 5.92 5.92 0 0 0-.4-1.71c-.26-.8-.51-1.54-.74-2.25l-13.69-40.3h-.23L314.68 182a18.26 18.26 0 0 1-.58 1.91 5.91 5.91 0 0 0-.34 1.91 1.47 1.47 0 0 0 .85 1.45 2.2 2.2 0 0 0 1.67.13v1.6H303v-1.58m113.24-31.91c2.74 0 4.67-.71 5.82-2.12s1.72-3.54 1.72-6.45c0-3.16-.6-5.46-1.77-6.91s-3.49-2.18-6.91-2.18h-23.16v17.66zm-24.3 28.19a5.62 5.62 0 0 0 .5 3c.35.48 1.12.73 2.34.73V189H382v-1.58c1.21 0 2-.25 2.34-.73a5.63 5.63 0 0 0 .51-3v-47.42a5.63 5.63 0 0 0-.51-3c-.34-.49-1.13-.73-2.34-.73V131h34.92q7.54 0 11 4.35c2.28 2.91 3.42 6.85 3.42 11.85s-1.2 9-3.59 11.53-5.82 4-10.24 4.15L430.06 185a6.79 6.79 0 0 0 1.36 1.91 2.28 2.28 0 0 0 1.49.46V189h-12.33v-1.58a3.51 3.51 0 0 0 1.54-.2c.18-.13.27-.41.27-.86a2.71 2.71 0 0 0-.33-1.31c-.23-.44-.53-1-.91-1.85L410 162.88h-18l-.06 20.82zm61.06 3.67c1.22 0 2-.25 2.34-.74a5.56 5.56 0 0 0 .51-2.95v-47.43a5.56 5.56 0 0 0-.51-2.95c-.34-.48-1.12-.73-2.34-.73V131h12.78v1.57c-1.22 0-2 .25-2.34.73a5.86 5.86 0 0 0-.5 2.95v47.43a5.75 5.75 0 0 0 .5 2.95c.35.49 1.12.74 2.34.74V189H453v-1.58M533.62 148a6.63 6.63 0 0 0 .23-1.46 4.47 4.47 0 0 0-1.31-2.17 16.77 16.77 0 0 0-3.88-3.08 28.13 28.13 0 0 0-6.33-2.78 29 29 0 0 0-8.68-1.18 21 21 0 0 0-8.56 1.72 19 19 0 0 0-6.67 4.86 22.68 22.68 0 0 0-4.34 7.45 27.77 27.77 0 0 0-1.56 9.43A23 23 0 0 0 494 169a18.67 18.67 0 0 0 4.22 6.79 19.93 19.93 0 0 0 7.07 4.62 28 28 0 0 0 13.93 1.37c1.49-.22 3-.52 4.57-.91a26.34 26.34 0 0 0 4.4-1.53 11.51 11.51 0 0 0 3.4-2.23v-7.9h-10.4a2.8 2.8 0 0 0-2.29.72 4 4 0 0 0-.57 2.44H517v-12.61h1.37a2.09 2.09 0 0 0 .57 1.52 3.22 3.22 0 0 0 2.29.58h19.52v1.59a2.31 2.31 0 0 0-1.26.73 2.84 2.84 0 0 0-.35 1.64v8.83a2 2 0 0 0 1.61 2.23v1.32a28.6 28.6 0 0 1-5.94 5.2 34.7 34.7 0 0 1-6.8 3.5 31.39 31.39 0 0 1-7 1.77 54.09 54.09 0 0 1-6.73.46 36.78 36.78 0 0 1-11.64-1.77 23.52 23.52 0 0 1-9.26-5.6 26.71 26.71 0 0 1-6.1-9.42A34.35 34.35 0 0 1 485 159.5a31.24 31.24 0 0 1 7.52-20 28.13 28.13 0 0 1 9.1-6.83A27.71 27.71 0 0 1 514 130a31.85 31.85 0 0 1 8.74 1.11 43.77 43.77 0 0 1 6.84 2.51 41.06 41.06 0 0 1 4.75 2.57 7 7 0 0 0 2.28 1.18 1.07 1.07 0 0 0 .91-.33l.45-.59 1.37.66L535 148.7l-1.38-.66m76.85 35.64a5.73 5.73 0 0 0 .52 3c.34.49 1.12.73 2.34.73V189h-12.78v-1.58c1.22 0 2-.24 2.33-.73a5.54 5.54 0 0 0 .52-3v-21.88h-34.47v21.87a5.54 5.54 0 0 0 .52 3c.34.49 1.12.73 2.34.73V189H559v-1.58c1.21 0 2-.24 2.33-.73a5.54 5.54 0 0 0 .52-3v-47.44a5.57 5.57 0 0 0-.52-2.95c-.33-.48-1.12-.73-2.33-.73V131h12.79v1.57c-1.22 0-2 .25-2.34.73a5.57 5.57 0 0 0-.52 2.95v18.19h34.47v-18.19a5.57 5.57 0 0 0-.52-2.95c-.33-.48-1.11-.73-2.33-.73V131h12.78v1.57c-1.22 0-2 .25-2.34.73a5.57 5.57 0 0 0-.52 2.95v47.43m66.53-42a4 4 0 0 0-.56-2.45 2.9 2.9 0 0 0-2.29-.72h-17.69v45.31a5.84 5.84 0 0 0 .5 3c.35.48 1.12.72 2.35.72v1.58h-13.25v-1.58c1.23 0 2-.24 2.34-.72a5.63 5.63 0 0 0 .51-3v-45.28h-17.69a2.9 2.9 0 0 0-2.29.72 4.12 4.12 0 0 0-.56 2.45H627V128h1.37a4 4 0 0 0 .56 2.43 2.79 2.79 0 0 0 2.29.74h42.92a2.79 2.79 0 0 0 2.29-.74A4.06 4.06 0 0 0 677 128h1.38v13.71H677M44.37 238q-8.59 0-13.28 5.47c-3.12 3.63-4.68 8.66-4.68 15s1.56 11.42 4.68 15.06S38.64 279 44.37 279s10.15-1.82 13.28-5.46 4.69-8.67 4.69-15.06-1.57-11.42-4.69-15.05S50.1 238 44.37 238m0-6.95a28.24 28.24 0 0 1 10.13 1.78 22.08 22.08 0 0 1 8 5.33 24.23 24.23 0 0 1 5.32 8.64 37.59 37.59 0 0 1 0 23.54 23.85 23.85 0 0 1-5.32 8.6 21.23 21.23 0 0 1-8 5.15 30.28 30.28 0 0 1-20.26-.09 21.55 21.55 0 0 1-8-5.15 23.69 23.69 0 0 1-5.31-8.6 37.59 37.59 0 0 1 0-23.54 24.21 24.21 0 0 1 5.31-8.64 22.38 22.38 0 0 1 8-5.33A28 28 0 0 1 44.37 231m65.92 29c2 0 3.46-.56 4.29-1.64a8.09 8.09 0 0 0 1.27-5c0-2.46-.45-4.24-1.31-5.36s-2.57-1.7-5.12-1.7h-17.1V260h18m-18 21.9a4.65 4.65 0 0 0 .39 2.3c.25.38.83.57 1.72.57V286H85v-1.2q1.34 0 1.71-.57a4.44 4.44 0 0 0 .39-2.3v-36.85a4.34 4.34 0 0 0-.39-2.3c-.25-.37-.82-.56-1.71-.56V241h25.79c3.71 0 6.39 1.11 8.09 3.36s2.53 5.32 2.53 9.21-.89 7-2.66 9a10.13 10.13 0 0 1-7.55 3.22l9.28 17.21a5.56 5.56 0 0 0 1 1.49 1.66 1.66 0 0 0 1.09.37V286h-9.09v-1.2a2.3 2.3 0 0 0 1.13-.17c.14-.1.2-.31.2-.65a2.82 2.82 0 0 0-.24-1c-.17-.33-.4-.81-.68-1.42l-8.26-15.76H92.32V282m82.6-33.31a3.31 3.31 0 0 0-.4-1.9 2 2 0 0 0-1.7-.55h-13.06v35.18a4.85 4.85 0 0 0 .36 2.32c.27.36.84.55 1.76.55v1.24h-9.79v-1.24c.89 0 1.47-.19 1.72-.55a4.85 4.85 0 0 0 .36-2.32v-35.21h-13a2 2 0 0 0-1.7.55 3.25 3.25 0 0 0-.42 1.9h-1V238h1a3.28 3.28 0 0 0 .42 1.91 2.08 2.08 0 0 0 1.7.55h31.69a2.08 2.08 0 0 0 1.7-.55A3.34 3.34 0 0 0 175 238h1v10.66h-1m55 33.26a4.64 4.64 0 0 0 .39 2.32c.25.37.84.55 1.73.55V286h-9.43v-1.24c.89 0 1.47-.18 1.72-.55a4.64 4.64 0 0 0 .39-2.32v-17h-25.48v17a4.52 4.52 0 0 0 .38 2.32c.25.37.84.55 1.72.55V286H192v-1.24c.88 0 1.46-.18 1.72-.55a4.74 4.74 0 0 0 .38-2.32v-36.81a4.65 4.65 0 0 0-.38-2.3c-.26-.37-.84-.56-1.72-.56V241h9.42v1.22c-.88 0-1.47.19-1.72.56a4.65 4.65 0 0 0-.38 2.3v14.14h25.47v-14.14a4.65 4.65 0 0 0-.39-2.3c-.25-.37-.83-.56-1.72-.56V241h9.43v1.22c-.89 0-1.48.19-1.73.56a4.65 4.65 0 0 0-.39 2.3v36.84m39.27-36.2a15.52 15.52 0 0 0-6.54 1.34 14.15 14.15 0 0 0-4.92 3.68 16.87 16.87 0 0 0-3.14 5.53 21.82 21.82 0 0 0 0 13.62 16.78 16.78 0 0 0 3.14 5.51 14.9 14.9 0 0 0 4.92 3.74 16.19 16.19 0 0 0 13.08 0 14.74 14.74 0 0 0 4.94-3.74 16.53 16.53 0 0 0 3.11-5.51A20.67 20.67 0 0 0 285 263a20.11 20.11 0 0 0-1.1-6.75 16.35 16.35 0 0 0-3.11-5.53 14.22 14.22 0 0 0-4.94-3.68 15.52 15.52 0 0 0-6.54-1.34m0-5.72a20.27 20.27 0 0 1 15.53 6.81 22 22 0 0 1 4.25 7.3 28.29 28.29 0 0 1 0 18 22 22 0 0 1-4.25 7.32 19.22 19.22 0 0 1-6.71 4.81 24 24 0 0 1-17.63 0 19.18 19.18 0 0 1-6.7-4.81 21.49 21.49 0 0 1-4.27-7.32 28.15 28.15 0 0 1 0-18 21.66 21.66 0 0 1 4.27-7.3 20.22 20.22 0 0 1 15.46-6.79m59.13 40.29a15.32 15.32 0 0 0 6.7-1.32 12.38 12.38 0 0 0 4.47-3.65 15.22 15.22 0 0 0 2.53-5.31 26.73 26.73 0 0 0 0-13 15.4 15.4 0 0 0-2.53-5.33 12.25 12.25 0 0 0-4.47-3.64 15.45 15.45 0 0 0-6.7-1.31h-12.06v33.56h12.06m-17.29-35.21a4.65 4.65 0 0 0-.38-2.3c-.25-.38-.83-.56-1.72-.56V241h20.4a19.53 19.53 0 0 1 8.59 1.74 16.17 16.17 0 0 1 6 4.75 19.91 19.91 0 0 1 3.41 7.11 36.27 36.27 0 0 1 0 17.75 19.77 19.77 0 0 1-3.41 7.17 16.1 16.1 0 0 1-6 4.76 19.55 19.55 0 0 1-8.59 1.72H309v-1.22c.89 0 1.47-.18 1.72-.57a4.63 4.63 0 0 0 .38-2.29v-36.84m75.15.64a15.67 15.67 0 0 0-6.54 1.34 14.15 14.15 0 0 0-4.92 3.68 16.64 16.64 0 0 0-3.12 5.53 20.36 20.36 0 0 0-1.09 6.75 21.11 21.11 0 0 0 1.09 6.87 16.73 16.73 0 0 0 3.12 5.51 14.9 14.9 0 0 0 4.92 3.74 16.19 16.19 0 0 0 13.08 0 14.74 14.74 0 0 0 4.94-3.74 16.53 16.53 0 0 0 3.11-5.51 20.81 20.81 0 0 0 1.1-6.87 20.11 20.11 0 0 0-1.1-6.75 16.35 16.35 0 0 0-3.11-5.53 14.22 14.22 0 0 0-4.94-3.68 15.52 15.52 0 0 0-6.54-1.34m0-5.72a20.27 20.27 0 0 1 15.53 6.81 22 22 0 0 1 4.25 7.3 28.29 28.29 0 0 1 0 18 22 22 0 0 1-4.25 7.32 19.22 19.22 0 0 1-6.71 4.81 23.94 23.94 0 0 1-17.62 0 19.09 19.09 0 0 1-6.71-4.81 21.28 21.28 0 0 1-4.25-7.32 28 28 0 0 1 0-18 21.45 21.45 0 0 1 4.25-7.3 20.26 20.26 0 0 1 15.51-6.81M427 284.79a2.3 2.3 0 0 0 1.81-.57 3.91 3.91 0 0 0 .47-2.3v-36.84a4 4 0 0 0-.47-2.3 2.3 2.3 0 0 0-1.81-.56V241h12.31v1.22a4.13 4.13 0 0 0-1.81.26.71.71 0 0 0-.47.67 6 6 0 0 0 .93 1.74l22.85 31.82v-31.63a3.83 3.83 0 0 0-.46-2.3 2.29 2.29 0 0 0-1.82-.56V241h9.28v1.22a2.25 2.25 0 0 0-1.81.56 3.84 3.84 0 0 0-.47 2.3v36.84a3.84 3.84 0 0 0 .47 2.3 2.26 2.26 0 0 0 1.81.57V286h-11.3v-1.22a5.21 5.21 0 0 0 2-.2.83.83 0 0 0 .35-.71 1.26 1.26 0 0 0-.31-.87c-.19-.24-.43-.57-.71-1L434 249v33a4 4 0 0 0 .45 2.3 2.33 2.33 0 0 0 1.82.57V286H427v-1.22m92.92-36.12a3.24 3.24 0 0 0-.41-1.9 2 2 0 0 0-1.68-.55h-13.07v35.18a4.85 4.85 0 0 0 .36 2.32c.26.36.84.55 1.74.55v1.24h-9.77v-1.24c.89 0 1.46-.19 1.71-.55a4.64 4.64 0 0 0 .39-2.32v-35.18h-13.07a2 2 0 0 0-1.69.55 3.16 3.16 0 0 0-.43 1.9h-1V238h1a3.19 3.19 0 0 0 .43 1.91 2 2 0 0 0 1.69.55h31.71a2 2 0 0 0 1.68-.55 3.27 3.27 0 0 0 .41-1.91h1v10.66h-1M536 284.79c.91 0 1.48-.19 1.73-.57a4.65 4.65 0 0 0 .39-2.3v-36.84a4.77 4.77 0 0 0-.39-2.3c-.25-.38-.82-.56-1.73-.56V241h9.45v1.22c-.91 0-1.48.18-1.73.56a4.54 4.54 0 0 0-.39 2.3v36.84a4.54 4.54 0 0 0 .39 2.3c.25.38.82.57 1.73.57V286H536v-1.22m59.48-31.47a4.57 4.57 0 0 0 .16-.82v-.93c0-.41-.36-.93-1.09-1.57a14.89 14.89 0 0 0-2.91-2 20.55 20.55 0 0 0-4-1.65 15.63 15.63 0 0 0-4.51-.66 14.3 14.3 0 0 0-11.39 5.18 16.4 16.4 0 0 0-3.07 5.58 21.5 21.5 0 0 0-1.06 6.75 20.4 20.4 0 0 0 1.06 6.66 14.91 14.91 0 0 0 3 5.26 14.75 14.75 0 0 0 4.68 3.49 13.8 13.8 0 0 0 6 1.27 19 19 0 0 0 5.85-.82 17.06 17.06 0 0 0 4.36-2 11.8 11.8 0 0 0 2.69-2.34 3.46 3.46 0 0 0 .92-1.8 6.17 6.17 0 0 0-.33-2l.85-.62 5.9 9.42-.94.82a5.33 5.33 0 0 0-1-.77l-.6-.15a3.92 3.92 0 0 0-2.06 1 27.52 27.52 0 0 1-3.41 2.25 24.61 24.61 0 0 1-5 2.16 23.33 23.33 0 0 1-7 .9 22.8 22.8 0 0 1-8-1.38 17.1 17.1 0 0 1-6.54-4.28 21.15 21.15 0 0 1-4.38-7.22 27.83 27.83 0 0 1-1.6-9.82 26.85 26.85 0 0 1 1.64-9.84 21.46 21.46 0 0 1 4.51-7.26 19.93 19.93 0 0 1 6.66-4.56 21.07 21.07 0 0 1 8-1.56 28.79 28.79 0 0 1 6 .51 25.56 25.56 0 0 1 4.89 1.64 28.42 28.42 0 0 1 2.78 1.34 4 4 0 0 0 1.69.61c.44 0 .88-.38 1.34-1.13l1 .41-4.13 10.54-1-.61m22.85 19.74a9.89 9.89 0 0 0-.18 1.33c0 .55.44 1.18 1.3 1.89a14.92 14.92 0 0 0 3.46 2 28.23 28.23 0 0 0 5 1.59 25.68 25.68 0 0 0 5.86.65c3.86 0 6.9-.62 9.07-1.87a6 6 0 0 0 3.24-5.39c0-2.17-.75-3.72-2.23-4.6a16.08 16.08 0 0 0-5.6-1.89c-2.25-.37-4.69-.64-7.3-.83a31.63 31.63 0 0 1-7.29-1.26 12.46 12.46 0 0 1-5.62-3.4c-1.49-1.56-2.22-3.91-2.22-7a15.2 15.2 0 0 1 1.3-6.61 11.72 11.72 0 0 1 3.49-4.4 14.28 14.28 0 0 1 5.1-2.46 24.31 24.31 0 0 1 6-.76 27.08 27.08 0 0 1 5.82.55 29.89 29.89 0 0 1 4.33 1.29c1.21.48 2.19.91 2.91 1.28a4.27 4.27 0 0 0 1.62.55.84.84 0 0 0 .66-.25 5 5 0 0 0 .69-1.18l1.08.52-3.12 10-1-.51.13-.45v-.77a2.46 2.46 0 0 0-1.13-1.74 13.45 13.45 0 0 0-3-1.75 22.89 22.89 0 0 0-4.29-1.32 23.41 23.41 0 0 0-4.94-.52 17.7 17.7 0 0 0-5.32.67 8.6 8.6 0 0 0-3.16 1.74 5.73 5.73 0 0 0-1.55 2.44 10 10 0 0 0-.41 2.82 4.49 4.49 0 0 0 2.22 4.25 16 16 0 0 0 5.61 1.8c2.24.34 4.68.59 7.3.77a32.68 32.68 0 0 1 7.28 1.28 12.93 12.93 0 0 1 5.62 3.32c1.49 1.54 2.22 3.84 2.22 6.91q0 7.36-4.33 10.8c-2.9 2.28-7.59 3.42-14 3.42a29.52 29.52 0 0 1-6-.55 34.52 34.52 0 0 1-4.77-1.35c-1.38-.5-2.53-1-3.49-1.42a5.84 5.84 0 0 0-2.11-.66 1.09 1.09 0 0 0-1 .51 4.17 4.17 0 0 0-.53 1l-1-.4 3.29-10.33 1 .29" fill="#dcdcdc"/></g></g></svg>