<svg id="d635c300-b42a-4403-b4a6-3d20bd674367" data-name="Layer 1" xmlns="http://www.w3.org/2000/svg" viewBox="0 0 678.37 440">
  <title>Logo</title>
  <g id="42bec3f5-d982-42e9-9b6b-00eb51ea2c56" data-name="Mockup-V2.0">
    <g id="c39555b9-a8fb-459a-9c54-c16af3e3153c" data-name="V3">
      <g id="97c4fc1d-6a10-45eb-9953-85aa222b1c0e" data-name="WAINWRIGHT">
        <path id="4095d8c7-9a51-433b-abb0-a97a0a0d068f" data-name="Combined-Shape" d="M119,220C119,98.5,217.5,0,339,0V220H559c0,121.5-98.5,220-220,220V220Z" style="fill:#eaeaea;opacity:0.125;isolation:isolate"/>

        <path id="0809a539-9478-4f5f-9e3d-07ee2dbac92a" data-name="Fill-3" d="M20.77,186.7a3.4,3.4,0,0,0,2-.33,1.53,1.53,0,0,0,.32-1.12,7.33,7.33,0,0,0-.32-2c-.24-.74-.44-1.43-.58-2L3.88,125.06a11.35,11.35,0,0,0-1.48-3.35A2.74,2.74,0,0,0,0,120.58V119H15v1.58a2.81,2.81,0,0,0-2,.53,2,2,0,0,0-.51,1.44,4.73,4.73,0,0,0,.41,1.78c.26.66.53,1.43.84,2.31l15.43,47.68h.22l15.29-50.18a7.31,7.31,0,0,0,.34-2q0-1.59-1.71-1.59V119H59.12v1.58c-1.36,0-2,.57-2,1.7a5.25,5.25,0,0,0,.34,1.66q.35,1,.69,2l14.84,46.75h.23l15.18-47.41a12.27,12.27,0,0,1,.46-1.51,4,4,0,0,0,.22-1.38c0-1.23-.83-1.85-2.51-1.85V119h14.39v1.58a2.55,2.55,0,0,0-2.17.91,15.4,15.4,0,0,0-1.61,3.57L79.21,180.9c-.38,1.14-.67,2-.91,2.63a5.89,5.89,0,0,0-.35,2c0,.8.76,1.19,2.29,1.19v1.58H65.18V186.7a3.3,3.3,0,0,0,1.88-.33,1.19,1.19,0,0,0,.39-1,6.73,6.73,0,0,0-.44-2.18c-.31-.83-.57-1.61-.81-2.31L50.92,133h-.24L35.39,182.22c-.15.53-.31,1-.45,1.51a5,5,0,0,0-.24,1.66c0,.87.77,1.31,2.29,1.31v1.58H20.77V186.7" style="fill:#dcdcdc"/>

        <path id="55871023-c571-428b-8186-5b13bd47ba56" data-name="Fill-9" d="M124.7,164.46H147L135.43,136.8,124.7,164.46M107,187.38a2.79,2.79,0,0,0,2.45-.92,11.29,11.29,0,0,0,1.21-2.37l18-47.69a8.14,8.14,0,0,0,.57-2.23,1.5,1.5,0,0,0-.64-1.19,4.12,4.12,0,0,0-2.21-.66V131h18.48v1.58a4.83,4.83,0,0,0-1.76.34,1.25,1.25,0,0,0-.87,1.25,3.17,3.17,0,0,0,.31,1.31c.17.45.34.88.5,1.32l19.52,47.94a6.23,6.23,0,0,0,1,1.79,3.08,3.08,0,0,0,2.52.85V189H151.75v-1.59a6.31,6.31,0,0,0,2.73-.39,1.28,1.28,0,0,0,.68-1.19,5,5,0,0,0-.22-1.59c-.15-.44-.31-.87-.46-1.31l-4.68-11.06H122.07l-3.88,10c-.32.79-.63,1.54-1,2.24a4.18,4.18,0,0,0-.5,1.71,1.29,1.29,0,0,0,.66,1.19,5.29,5.29,0,0,0,2.4.39V189H107v-1.59" style="fill:#dcdcdc"/>

        <path id="a3bd5c8f-4149-4697-8ff4-72ca53e91dd3" data-name="Fill-14" d="M181,187.37c1.23,0,2-.25,2.34-.73a5.59,5.59,0,0,0,.52-3V136.25a5.55,5.55,0,0,0-.52-2.95c-.34-.48-1.11-.73-2.34-.73V131h12.78v1.57c-1.21,0-2,.25-2.33.73a5.57,5.57,0,0,0-.51,2.95v47.43a5.61,5.61,0,0,0,.51,3c.35.48,1.12.73,2.33.73V189H181v-1.58" style="fill:#dcdcdc"/>
        <path id="2f3a9fc9-4905-401c-a8d5-1846219b358e" data-name="Fill-18" d="M216,187.37a3.18,3.18,0,0,0,2.46-.74,4.83,4.83,0,0,0,.62-2.95V136.25a4.85,4.85,0,0,0-.62-2.95,3.22,3.22,0,0,0-2.46-.73V131h16.66v1.57a6.22,6.22,0,0,0-2.45.33,1,1,0,0,0-.63.86,7.13,7.13,0,0,0,1.26,2.23l30.93,41V136.25a4.85,4.85,0,0,0-.62-2.95,3.25,3.25,0,0,0-2.46-.73V131h12.55v1.57a3.25,3.25,0,0,0-2.46.73,4.85,4.85,0,0,0-.62,2.95v47.43a4.83,4.83,0,0,0,.62,2.95,3.21,3.21,0,0,0,2.46.74V189H256v-1.58a7.77,7.77,0,0,0,2.74-.26,1,1,0,0,0,.45-.93,1.7,1.7,0,0,0-.39-1.12,15.22,15.22,0,0,1-1-1.25l-32.31-42.54v42.41a4.66,4.66,0,0,0,.64,2.95,3.12,3.12,0,0,0,2.43.74V189H216v-1.58" style="fill:#dcdcdc"/>
        <path id="45522037-c6a9-4eea-8e39-b18c7fc75490" data-name="Fill-23" d="M303,187.37a4,4,0,0,0,2-.33,1.44,1.44,0,0,0,.46-1.25,4.1,4.1,0,0,0-.46-1.65,8.3,8.3,0,0,1-.68-2L288.31,136a7.69,7.69,0,0,0-1.37-2.69,2.54,2.54,0,0,0-1.94-.73V131h13v1.57c-2.14,0-3.2.48-3.2,1.45a3.14,3.14,0,0,0,.35,1.39,9.74,9.74,0,0,1,.56,1.51l13.81,39.38h.23l12.44-39.51c.15-.54.32-1,.46-1.44a4.14,4.14,0,0,0,.23-1.33c0-1-.8-1.45-2.4-1.45V131h13.7v1.57c-1.61,0-2.4.36-2.4,1.07a3.14,3.14,0,0,0,.29,1.31,9.72,9.72,0,0,1,.5,1.57l12.79,39.78h.23l11.76-38.72a13.4,13.4,0,0,1,.46-1.71,4.9,4.9,0,0,0,.23-1.59c0-1.13-1-1.71-3-1.71V131h13v1.57a4.41,4.41,0,0,0-2.3.46,3.64,3.64,0,0,0-1.13,1.92L350.29,182.1c-.14.53-.32,1.12-.51,1.78a6.4,6.4,0,0,0-.28,1.77c0,1.15.79,1.72,2.38,1.72V189H339.57v-1.58a3.57,3.57,0,0,0,2-.33,1.18,1.18,0,0,0,.4-1,5.93,5.93,0,0,0-.4-1.71c-.26-.8-.51-1.54-.74-2.25l-13.69-40.3h-.23L314.68,182a17.83,17.83,0,0,1-.58,1.91,6,6,0,0,0-.34,1.91,1.46,1.46,0,0,0,.85,1.45,2.23,2.23,0,0,0,1.67.13V189H303v-1.58" style="fill:#dcdcdc"/>
        <path id="9bc65a27-19af-4390-99cf-454f8bf6575a" data-name="Fill-28" d="M416.24,155.51c2.74,0,4.67-.71,5.82-2.12s1.72-3.54,1.72-6.45c0-3.16-.6-5.46-1.77-6.91s-3.49-2.18-6.91-2.18H391.94v17.66Zm-24.3,28.19a5.57,5.57,0,0,0,.5,3c.35.48,1.12.73,2.34.73V189H382v-1.58c1.21,0,2-.25,2.34-.73a5.65,5.65,0,0,0,.51-3V136.27a5.65,5.65,0,0,0-.51-3c-.34-.49-1.13-.73-2.34-.73V131h34.92q7.54,0,11,4.35c2.28,2.91,3.42,6.85,3.42,11.85s-1.2,9-3.59,11.53-5.82,4-10.24,4.15L430.06,185a6.8,6.8,0,0,0,1.36,1.91,2.27,2.27,0,0,0,1.49.46V189H420.58v-1.58a3.54,3.54,0,0,0,1.54-.2c.18-.13.27-.41.27-.86a2.8,2.8,0,0,0-.33-1.31c-.23-.44-.53-1-.91-1.85L410,162.88h-18Z" style="fill:#dcdcdc"/>
        <path id="e0c323fc-9d85-4265-86a6-bb73f843b4d2" data-name="Fill-32" d="M453,187.37c1.22,0,2-.25,2.34-.74a5.55,5.55,0,0,0,.51-2.95V136.25a5.57,5.57,0,0,0-.51-2.95c-.34-.48-1.12-.73-2.34-.73V131h12.78v1.57c-1.22,0-2,.25-2.34.73a5.81,5.81,0,0,0-.5,2.95v47.43a5.78,5.78,0,0,0,.5,2.95c.35.49,1.12.74,2.34.74V189H453v-1.58" style="fill:#dcdcdc"/>
        <path id="6cd14a46-88de-44cd-9ac9-9c24c3b1e4bb" data-name="Fill-36" d="M533.62,148a6.85,6.85,0,0,0,.23-1.46,4.49,4.49,0,0,0-1.31-2.17,16.84,16.84,0,0,0-3.88-3.08,28,28,0,0,0-6.33-2.78,29,29,0,0,0-8.68-1.18,21,21,0,0,0-8.56,1.72,18.93,18.93,0,0,0-6.67,4.86,22.76,22.76,0,0,0-4.34,7.45,27.84,27.84,0,0,0-1.56,9.43A23.14,23.14,0,0,0,494,169a18.76,18.76,0,0,0,4.22,6.79,20,20,0,0,0,7.07,4.62,28.05,28.05,0,0,0,13.93,1.37c1.49-.22,3-.52,4.57-.91a26.54,26.54,0,0,0,4.4-1.53,11.53,11.53,0,0,0,3.4-2.23v-7.9H521.19a2.8,2.8,0,0,0-2.29.72,4,4,0,0,0-.57,2.44H517V159.76h1.37a2.11,2.11,0,0,0,.57,1.52,3.21,3.21,0,0,0,2.29.58h19.52v1.59a2.29,2.29,0,0,0-1.26.73,2.85,2.85,0,0,0-.35,1.64v8.83a2,2,0,0,0,1.61,2.23v1.32a28.49,28.49,0,0,1-5.94,5.2,34.81,34.81,0,0,1-6.8,3.5,31.08,31.08,0,0,1-7,1.77,53.62,53.62,0,0,1-6.73.46,36.89,36.89,0,0,1-11.64-1.77,23.49,23.49,0,0,1-9.26-5.6,26.78,26.78,0,0,1-6.1-9.42A34.42,34.42,0,0,1,485,159.5,30.41,30.41,0,0,1,486.94,149a30.76,30.76,0,0,1,5.58-9.49,28.12,28.12,0,0,1,9.1-6.83A27.7,27.7,0,0,1,514,130a31.87,31.87,0,0,1,8.74,1.11,43.8,43.8,0,0,1,6.84,2.51,41.52,41.52,0,0,1,4.75,2.57,6.94,6.94,0,0,0,2.28,1.18,1.07,1.07,0,0,0,.91-.33l.45-.59,1.37.66L535,148.7l-1.38-.66" style="fill:#dcdcdc"/>
        <path id="f29ee38e-e27e-488d-ac5a-71e14bc35163" data-name="Fill-40" d="M610.47,183.68a5.69,5.69,0,0,0,.52,3c.34.49,1.12.73,2.34.73V189H600.55v-1.58c1.22,0,2-.24,2.33-.73a5.59,5.59,0,0,0,.52-3V161.81H568.93v21.87a5.59,5.59,0,0,0,.52,3c.34.49,1.12.73,2.34.73V189H559v-1.58c1.21,0,2-.24,2.33-.73a5.59,5.59,0,0,0,.52-3V136.25a5.55,5.55,0,0,0-.52-2.95c-.33-.48-1.12-.73-2.33-.73V131h12.79v1.57c-1.22,0-2,.25-2.34.73a5.55,5.55,0,0,0-.52,2.95v18.19H603.4V136.25a5.55,5.55,0,0,0-.52-2.95c-.33-.48-1.11-.73-2.33-.73V131h12.78v1.57c-1.22,0-2,.25-2.34.73a5.65,5.65,0,0,0-.52,2.95v47.43" style="fill:#dcdcdc"/>
        <path id="1930c318-101c-4415-9a1e-6d1fe89bc0af" data-name="Fill-45" d="M677,141.71a4.06,4.06,0,0,0-.56-2.45,2.9,2.9,0,0,0-2.29-.72H656.46v45.31a5.79,5.79,0,0,0,.5,3c.35.48,1.12.72,2.35.72v1.58H646.06v-1.58c1.23,0,2-.24,2.34-.72a5.66,5.66,0,0,0,.51-3V138.54H631.22a2.9,2.9,0,0,0-2.29.72,4.13,4.13,0,0,0-.56,2.45H627V128h1.37a4,4,0,0,0,.56,2.43,2.82,2.82,0,0,0,2.29.74h42.92a2.82,2.82,0,0,0,2.29-.74A4,4,0,0,0,677,128h1.38v13.71H677" style="fill:#dcdcdc"/>
        <path id="162e7edc-e05e-40d5-b3d4-b3de4803711c" data-name="Fill-48" d="M44.37,238q-8.59,0-13.28,5.47c-3.12,3.63-4.68,8.66-4.68,15.05s1.56,11.42,4.68,15.06S38.64,279,44.37,279s10.15-1.82,13.28-5.46,4.69-8.67,4.69-15.06-1.57-11.42-4.69-15.05S50.1,238,44.37,238m0-6.95a28.26,28.26,0,0,1,10.13,1.78,22.11,22.11,0,0,1,8,5.33,24.26,24.26,0,0,1,5.32,8.64,37.59,37.59,0,0,1,0,23.54,23.82,23.82,0,0,1-5.32,8.6,21.19,21.19,0,0,1-8,5.15,29.38,29.38,0,0,1-10.13,1.7A29.34,29.34,0,0,1,34.24,284a21.42,21.42,0,0,1-8-5.15,23.8,23.8,0,0,1-5.31-8.6,37.59,37.59,0,0,1,0-23.54,24.24,24.24,0,0,1,5.31-8.64,22.37,22.37,0,0,1,8-5.33A28.22,28.22,0,0,1,44.37,231" style="fill:#dcdcdc"/>
        <path id="e187ffa6-5023-46fa-9242-02e2aed8dc60" data-name="Fill-54" d="M110.29,260c2,0,3.46-.56,4.29-1.64a8.1,8.1,0,0,0,1.27-5c0-2.46-.45-4.24-1.31-5.36s-2.57-1.7-5.12-1.7H92.32V260h18m-18,21.9a4.66,4.66,0,0,0,.39,2.3c.25.38.83.57,1.72.57V286H85V284.8q1.34,0,1.71-.57a4.43,4.43,0,0,0,.39-2.3V245.08a4.38,4.38,0,0,0-.39-2.3c-.25-.37-.82-.56-1.71-.56V241h25.79c3.71,0,6.39,1.11,8.09,3.36s2.53,5.32,2.53,9.21-.89,7-2.66,9a10.15,10.15,0,0,1-7.55,3.22l9.28,17.18a5.53,5.53,0,0,0,1,1.49,1.71,1.71,0,0,0,1.09.37V286h-9.09V284.8a2.26,2.26,0,0,0,1.13-.17c.14-.1.2-.31.2-.65a2.7,2.7,0,0,0-.24-1c-.17-.33-.4-.81-.68-1.42l-8.26-15.76H92.32v16.17" style="fill:#dcdcdc"/>
        <path id="96dcdea8-a6e6-47c7-b1f3-03d27b0aa39a" data-name="Fill-59" d="M174.92,248.66a3.38,3.38,0,0,0-.4-1.9,2,2,0,0,0-1.7-.55H159.76v35.18a4.79,4.79,0,0,0,.36,2.32c.27.36.84.55,1.76.55v1.24h-9.79v-1.24c.89,0,1.47-.19,1.72-.55a4.79,4.79,0,0,0,.36-2.32V246.21h-13a2,2,0,0,0-1.7.55,3.27,3.27,0,0,0-.42,1.9h-1V238h1a3.31,3.31,0,0,0,.42,1.91,2.06,2.06,0,0,0,1.7.55h31.69a2.07,2.07,0,0,0,1.7-.55,3.41,3.41,0,0,0,.4-1.91h1v10.66h-1" style="fill:#dcdcdc"/>
        <path id="52d34a43-0ab4-4a55-b277-6b27dc3f72e0" data-name="Fill-64" d="M230,281.92a4.67,4.67,0,0,0,.39,2.32c.25.37.84.55,1.73.55V286h-9.43v-1.24c.89,0,1.47-.18,1.72-.55a4.67,4.67,0,0,0,.39-2.32v-17H199.32v17a4.58,4.58,0,0,0,.38,2.32c.25.37.84.55,1.72.55V286H192v-1.24c.88,0,1.46-.18,1.72-.55a4.7,4.7,0,0,0,.38-2.32V245.08a4.68,4.68,0,0,0-.38-2.3c-.26-.37-.84-.56-1.72-.56V241h9.42v1.22c-.88,0-1.47.19-1.72.56a4.57,4.57,0,0,0-.38,2.3v14.14h25.47V245.08a4.66,4.66,0,0,0-.39-2.3c-.25-.37-.83-.56-1.72-.56V241h9.43v1.22c-.89,0-1.48.19-1.73.56a4.66,4.66,0,0,0-.39,2.3v36.84" style="fill:#dcdcdc"/>
        <path id="6a2965c7-6663-4a18-8c6c-a6b7f1bdc251" data-name="Fill-69" d="M269.26,245.72a15.48,15.48,0,0,0-6.54,1.34,14.27,14.27,0,0,0-4.92,3.68,16.85,16.85,0,0,0-3.14,5.53,20.81,20.81,0,0,0-1.09,6.75,21.23,21.23,0,0,0,1.09,6.87,16.85,16.85,0,0,0,3.14,5.51,14.82,14.82,0,0,0,4.92,3.74,16.19,16.19,0,0,0,13.08,0,14.8,14.8,0,0,0,4.94-3.74,16.44,16.44,0,0,0,3.11-5.51A20.71,20.71,0,0,0,285,263a20.29,20.29,0,0,0-1.1-6.75,16.44,16.44,0,0,0-3.11-5.53,14.26,14.26,0,0,0-4.94-3.68,15.51,15.51,0,0,0-6.54-1.34m0-5.72a20.26,20.26,0,0,1,15.53,6.81,22,22,0,0,1,4.25,7.3,28.35,28.35,0,0,1,0,18,22,22,0,0,1-4.25,7.32,19.14,19.14,0,0,1-6.71,4.81,24,24,0,0,1-17.63,0,19.11,19.11,0,0,1-6.7-4.81,21.52,21.52,0,0,1-4.27-7.32,28.17,28.17,0,0,1,0-18,21.53,21.53,0,0,1,4.27-7.3A20.21,20.21,0,0,1,269.26,240" style="fill:#dcdcdc"/>
        <path id="4616d739-5740-4b66-a194-65eac7aad21f" data-name="Fill-73" d="M328.39,280.29a15.36,15.36,0,0,0,6.7-1.32,12.34,12.34,0,0,0,4.47-3.65,15.27,15.27,0,0,0,2.53-5.31,26.81,26.81,0,0,0,0-13,15.29,15.29,0,0,0-2.53-5.33,12.32,12.32,0,0,0-4.47-3.64,15.37,15.37,0,0,0-6.7-1.31H316.33v33.56h12.06M311.1,245.08a4.66,4.66,0,0,0-.38-2.3c-.25-.38-.83-.56-1.72-.56V241h20.4a19.54,19.54,0,0,1,8.59,1.74,16.08,16.08,0,0,1,6,4.75,19.91,19.91,0,0,1,3.41,7.11,36.35,36.35,0,0,1,0,17.75,19.8,19.8,0,0,1-3.41,7.17,16.11,16.11,0,0,1-6,4.76A19.54,19.54,0,0,1,329.4,286H309v-1.22c.89,0,1.47-.18,1.72-.57a4.61,4.61,0,0,0,.38-2.29V245.08" style="fill:#dcdcdc"/>
        <path id="41f2ab7a-e143-4247-acd0-8b310f964edc" data-name="Fill-78" d="M386.25,245.72a15.57,15.57,0,0,0-6.54,1.34,14.27,14.27,0,0,0-4.92,3.68,16.63,16.63,0,0,0-3.12,5.53,20.54,20.54,0,0,0-1.09,6.75,21,21,0,0,0,1.09,6.87,16.63,16.63,0,0,0,3.12,5.51,14.82,14.82,0,0,0,4.92,3.74,16.19,16.19,0,0,0,13.08,0,14.8,14.8,0,0,0,4.94-3.74,16.44,16.44,0,0,0,3.11-5.51,20.71,20.71,0,0,0,1.1-6.87,20.29,20.29,0,0,0-1.1-6.75,16.44,16.44,0,0,0-3.11-5.53,14.26,14.26,0,0,0-4.94-3.68,15.48,15.48,0,0,0-6.54-1.34m0-5.72a20.26,20.26,0,0,1,15.53,6.81,22,22,0,0,1,4.25,7.3,28.35,28.35,0,0,1,0,18,22,22,0,0,1-4.25,7.32,19.14,19.14,0,0,1-6.71,4.81,23.94,23.94,0,0,1-17.62,0,19.05,19.05,0,0,1-6.71-4.81,21.32,21.32,0,0,1-4.25-7.32,28,28,0,0,1,0-18,21.32,21.32,0,0,1,4.25-7.3A20.26,20.26,0,0,1,386.25,240" style="fill:#dcdcdc"/>
        <path id="12d9211d-9fa4-48b6-9968-98d74c0f201c" data-name="Fill-82" d="M427,284.79a2.3,2.3,0,0,0,1.81-.57,3.92,3.92,0,0,0,.47-2.3V245.08a4,4,0,0,0-.47-2.3,2.31,2.31,0,0,0-1.81-.56V241h12.31v1.22a4.21,4.21,0,0,0-1.81.26.72.72,0,0,0-.47.67,6,6,0,0,0,.93,1.74l22.85,31.82V245.08a3.88,3.88,0,0,0-.46-2.3,2.3,2.3,0,0,0-1.82-.56V241h9.28v1.22a2.26,2.26,0,0,0-1.81.56,3.87,3.87,0,0,0-.47,2.3v36.84a3.85,3.85,0,0,0,.47,2.3,2.26,2.26,0,0,0,1.81.57V286h-11.3v-1.22a5.18,5.18,0,0,0,2-.2.84.84,0,0,0,.35-.71,1.25,1.25,0,0,0-.31-.87c-.19-.24-.43-.57-.71-1L434,249v33a4,4,0,0,0,.45,2.3,2.3,2.3,0,0,0,1.82.57V286H427v-1.22" style="fill:#dcdcdc"/>
        <path id="db3f6824-493d-4e81-8f37-68c313ca2a0e" data-name="Fill-87" d="M519.92,248.66a3.28,3.28,0,0,0-.41-1.9,2,2,0,0,0-1.68-.55H504.76v35.18a4.91,4.91,0,0,0,.36,2.32c.26.36.84.55,1.74.55v1.24h-9.77v-1.24c.89,0,1.46-.19,1.71-.55a4.58,4.58,0,0,0,.39-2.32V246.21H486.12a2,2,0,0,0-1.69.55,3.19,3.19,0,0,0-.43,1.9h-1V238h1a3.22,3.22,0,0,0,.43,1.91,2,2,0,0,0,1.69.55h31.71a2,2,0,0,0,1.68-.55,3.32,3.32,0,0,0,.41-1.91h1v10.66h-1" style="fill:#dcdcdc"/>
        <path id="8fb11273-fc75-460a-863c-56da25488960" data-name="Fill-93" d="M536,284.79c.91,0,1.48-.19,1.73-.57a4.69,4.69,0,0,0,.39-2.3V245.08a4.72,4.72,0,0,0-.39-2.3c-.25-.38-.82-.56-1.73-.56V241h9.45v1.22c-.91,0-1.48.18-1.73.56a4.6,4.6,0,0,0-.39,2.3v36.84a4.58,4.58,0,0,0,.39,2.3c.25.38.82.57,1.73.57V286H536v-1.22" style="fill:#dcdcdc"/>
        <path id="5cdc69f1-046c-4c75-bee3-b51352561070" data-name="Fill-98" d="M595.48,253.31a4.69,4.69,0,0,0,.16-.82v-.93c0-.41-.36-.93-1.09-1.57a14.79,14.79,0,0,0-2.91-2,21,21,0,0,0-4-1.65,15.78,15.78,0,0,0-4.51-.66,15,15,0,0,0-6.49,1.37,14.78,14.78,0,0,0-4.9,3.81,16.37,16.37,0,0,0-3.07,5.58,21.35,21.35,0,0,0-1.06,6.75,20.53,20.53,0,0,0,1.06,6.66,14.94,14.94,0,0,0,3,5.26,14.75,14.75,0,0,0,4.68,3.49,13.83,13.83,0,0,0,6,1.27,19,19,0,0,0,5.85-.82,17.32,17.32,0,0,0,4.36-2,11.94,11.94,0,0,0,2.69-2.34,3.48,3.48,0,0,0,.92-1.8,6.08,6.08,0,0,0-.33-2l.85-.62,5.9,9.42-.94.82a5.22,5.22,0,0,0-1-.77l-.6-.15a3.88,3.88,0,0,0-2.06,1,27.61,27.61,0,0,1-3.41,2.25,24.84,24.84,0,0,1-5,2.16,23.27,23.27,0,0,1-6.95.9,22.66,22.66,0,0,1-8.05-1.38,17.06,17.06,0,0,1-6.54-4.28,21.06,21.06,0,0,1-4.38-7.22,27.71,27.71,0,0,1-1.6-9.82,26.9,26.9,0,0,1,1.64-9.84,21.48,21.48,0,0,1,4.51-7.26,20,20,0,0,1,6.66-4.56A20.91,20.91,0,0,1,582.9,240a29.13,29.13,0,0,1,6,.51,26.27,26.27,0,0,1,4.89,1.64,28.41,28.41,0,0,1,2.78,1.34,3.89,3.89,0,0,0,1.69.61c.44,0,.88-.38,1.34-1.13l1,.41-4.13,10.54-1-.61" style="fill:#dcdcdc"/>
        <path id="5312297d-942f-4179-a7f2-3a283de6934d" data-name="Fill-103" d="M618.32,273.05a8.62,8.62,0,0,0-.18,1.33c0,.55.44,1.18,1.3,1.89a15,15,0,0,0,3.46,2,28.36,28.36,0,0,0,5,1.59,25.67,25.67,0,0,0,5.86.65c3.86,0,6.9-.62,9.07-1.87a6,6,0,0,0,3.24-5.39c0-2.17-.75-3.72-2.23-4.6a16.16,16.16,0,0,0-5.6-1.89c-2.25-.37-4.69-.64-7.3-.83a31.69,31.69,0,0,1-7.29-1.26,12.47,12.47,0,0,1-5.62-3.4c-1.49-1.56-2.22-3.91-2.22-7a15.13,15.13,0,0,1,1.3-6.61,11.78,11.78,0,0,1,3.49-4.4,14.32,14.32,0,0,1,5.1-2.46,24.15,24.15,0,0,1,6-.76,27.34,27.34,0,0,1,5.82.55,30.36,30.36,0,0,1,4.33,1.29c1.21.48,2.19.91,2.91,1.28a4.31,4.31,0,0,0,1.62.55.85.85,0,0,0,.66-.25,4.88,4.88,0,0,0,.69-1.18l1.08.52-3.12,10-1-.51.13-.45a7.24,7.24,0,0,0,0-.77,2.46,2.46,0,0,0-1.13-1.74,13.34,13.34,0,0,0-3-1.75,23.31,23.31,0,0,0-4.29-1.32,23.73,23.73,0,0,0-4.94-.52,17.59,17.59,0,0,0-5.32.67,8.59,8.59,0,0,0-3.16,1.74,5.68,5.68,0,0,0-1.55,2.44,9.82,9.82,0,0,0-.41,2.82,4.48,4.48,0,0,0,2.22,4.25,16,16,0,0,0,5.61,1.8c2.24.34,4.68.59,7.3.77a32.24,32.24,0,0,1,7.28,1.28,12.9,12.9,0,0,1,5.62,3.32c1.49,1.54,2.22,3.84,2.22,6.91q0,7.36-4.33,10.8c-2.9,2.28-7.59,3.42-14,3.42a29.72,29.72,0,0,1-6-.55,34.15,34.15,0,0,1-4.77-1.35c-1.38-.5-2.53-1-3.49-1.42a5.87,5.87,0,0,0-2.11-.66,1.09,1.09,0,0,0-1,.51,4.15,4.15,0,0,0-.53,1l-1-.4,3.29-10.33,1,.29" style="fill:#dcdcdc"/>
      </g>
    </g>
  </g>
</svg>
