<svg xmlns="http://www.w3.org/2000/svg" viewBox="0 0 50 50">
  <title>phone-01</title>
  <path class="icon-fill" d="M34.89,21.74c0-3.91-4.43-7.09-9.89-7.09s-9.89,3.21-9.89,7.09,4.43,7.09,9.89,7.09S34.89,25.65,34.89,21.74Z"/>
  <path class="icon-fill" d="M39.94,23.49a1,1,0,0,0-1.41-.32,1.06,1.06,0,0,0-.45.62c-1.3,4.36-6.72,7.53-12.89,7.53S13.3,28.07,12,23.79a1,1,0,0,0-1.24-.74,1,1,0,0,0-.61.43l-5.8,8.28a1,1,0,0,0-.2.6v9c0,2.13,2.55,3.49,4.31,3.49H41.52c1.76,0,4.31-1.36,4.31-3.49v-9a1,1,0,0,0-.19-.59Z"/>
  <path class="icon-fill" d="M25,5.18C13,5.18,0,9.47,0,16.42v2.86a2.66,2.66,0,0,0,2.66,2.66H9.31c1.33,0,3.19-1,3.19-2.63V17.68c0-3.29,6.47-5.49,12.5-5.49s12.5,2.2,12.5,5.49v1.63c0,1.63,1.87,2.63,3.19,2.63h6.62A2.66,2.66,0,0,0,50,19.31V16.43C50,9.48,37,5.18,25,5.18Z"/>
</svg>
