<svg id="74cf536d-576d-4d34-bf3b-a9239d45acea" data-name="Layer 1" xmlns="http://www.w3.org/2000/svg" xmlns:xlink="http://www.w3.org/1999/xlink" viewBox="0 0 115 82.75"><defs><mask id="c67c2a9d-8e59-42b8-9cb4-78079c2e219d" x="0" y="0" width="55" height="82.75" maskUnits="userSpaceOnUse"><g transform="translate(0 -0.25)"><g id="7f0bde4f-bdd3-4e51-a76f-c198579d7933" data-name="mask-2"><polygon id="877744a1-cbd8-4338-9828-e12ffc160646" data-name="path-1" points="0 0.25 55 0.25 55 83 0 83 0 0.25" style="fill:#fff"/></g></g></mask><mask id="7adb279e-384c-4837-b52d-7a5472c191e5" x="60" y="0" width="55" height="82.75" maskUnits="userSpaceOnUse"><g transform="translate(0 -0.25)"><g id="347c3529-9a3e-4f1d-9912-9321418db24e" data-name="mask-4"><polygon id="26b433cb-5456-4ce2-9aa9-b36197554057" data-name="path-3" points="60 0.25 115 0.25 115 83 60 83 60 0.25" style="fill:#fff"/></g></g></mask></defs><title>QuoteRt</title><g id="ee71188b-a06d-4dcf-ba8f-c2158da73aa0" data-name="Mockup-V2.0" style="opacity:0.5199999809265137"><g id="51a3abfc-cca7-49eb-beff-28e4b8cb212d" data-name="V3"><g id="8fdf26a8-645b-4fb4-9d67-f711dac23979" data-name="Group-2"><g id="2ed1aea4-6af1-40a4-90b7-b555c04286cb" data-name="Group"><g id="ef154de6-cd0b-4882-9173-0ec8c4cc7bfc" data-name="Group-3"><g style="mask:url(#c67c2a9d-8e59-42b8-9cb4-78079c2e219d)"><path id="53259d87-297f-4be3-a1e3-3e5bf2f95a86" data-name="Fill-1" d="M27.5.25a27.34,27.34,0,1,0,0,54.67c.41,0,.45,0,.74,0C34,54.58,14.34,83.42,14.86,83,49.05,69.7,55,36.14,55,27.59A27.42,27.42,0,0,0,27.5.25" transform="translate(0 -0.25)" style="fill:#fff;opacity:0.2738281190395355;isolation:isolate"/></g></g><g id="5ad124af-73b2-4f6c-9677-442d8d8ec001" data-name="Group-6"><g style="mask:url(#7adb279e-384c-4837-b52d-7a5472c191e5)"><path id="837acacb-75e5-4390-ac7a-e48e2dede4ab" data-name="Fill-4" d="M87.5.25a27.34,27.34,0,1,0,0,54.67c.41,0,.45,0,.74,0C94,54.58,74.34,83.42,74.86,83,109.05,69.7,115,36.14,115,27.59A27.42,27.42,0,0,0,87.5.25" transform="translate(0 -0.25)" style="fill:#fff;opacity:0.2738281190395355;isolation:isolate"/></g></g></g></g></g></g></svg>