<svg id="3ba2a76a-a9a5-4a57-9f45-a4099def43d6" data-name="Layer 1" xmlns="http://www.w3.org/2000/svg" xmlns:xlink="http://www.w3.org/1999/xlink" viewBox="0 0 112 81.55"><defs><mask id="7a9fe6a8-36ad-4872-a052-c7cfab826745" x="59" y="0" width="53" height="81.55" maskUnits="userSpaceOnUse"><g transform="translate(0 -0.45)"><g id="8ee4192c-587d-47b0-9a8d-e2a404c01efc" data-name="mask-2"><polygon id="d05faffb-637c-4dab-88ba-dc2bd127ad07" data-name="path-1" points="112 0.45 59 0.45 59 82 112 82 112 0.45" style="fill:#fff"/></g></g></mask><mask id="74c61bcd-31e9-4a71-b042-f67cfa8ee50e" x="0" y="0" width="53" height="81.55" maskUnits="userSpaceOnUse"><g transform="translate(0 -0.45)"><g id="74692c95-be0d-4d08-9364-00824896b5cc" data-name="mask-4"><polygon id="426ab5bd-d01c-405b-aad0-04a74a943fbe" data-name="path-3" points="53 0.45 0 0.45 0 82 53 82 53 0.45" style="fill:#fff"/></g></g></mask></defs><title>QuoteLft</title><g id="ca42c840-f27a-4594-a541-1be14786a874" data-name="Mockup-V2.0" style="opacity:0.5186942219734192"><g id="4ed8c099-7c76-4afd-9f1b-afc4e3c8a80f" data-name="V3"><g id="b49c4d92-807b-46b4-b9f5-aa4439d3318b" data-name="Group-2"><g id="e6ff2e59-662b-454a-b852-56920d93f73e" data-name="Group"><g id="c3e0a259-54e0-4e7b-a6bf-aeef52b73ef2" data-name="Group-3"><g style="mask:url(#7a9fe6a8-36ad-4872-a052-c7cfab826745)"><path id="5c389311-526c-4e44-b958-2de7ca5364ac" data-name="Fill-1" d="M85.5.45A26.72,26.72,0,0,1,112,27.39,26.72,26.72,0,0,1,85.5,54.33c-.4,0-.43,0-.72,0C79.21,54,98.18,82.41,97.68,82,64.73,68.89,59,35.82,59,27.39A26.72,26.72,0,0,1,85.5.45" transform="translate(0 -0.45)" style="fill:#fff;opacity:0.2738281190395355;isolation:isolate"/></g></g><g id="dfebcd35-0f35-4b05-bc73-0a11e7a813b3" data-name="Group-6"><g style="mask:url(#74c61bcd-31e9-4a71-b042-f67cfa8ee50e)"><path id="bb68e5bf-9751-4075-b5c4-44f1a144db3f" data-name="Fill-4" d="M26.5.45A26.72,26.72,0,0,1,53,27.39,26.72,26.72,0,0,1,26.5,54.33c-.4,0-.43,0-.72,0C20.21,54,39.18,82.41,38.68,82,5.73,68.89,0,35.82,0,27.39A26.72,26.72,0,0,1,26.5.45" transform="translate(0 -0.45)" style="fill:#fff;opacity:0.2738281190395355;isolation:isolate"/></g></g></g></g></g></g></svg>