<svg id="a1db438f-620f-45d7-8a12-61ca9cca61f9" data-name="Layer 1" xmlns="http://www.w3.org/2000/svg" viewBox="0 0 78 78">
  <title>RequestAppt</title>
  <g id="049fbcc9-0fe0-4c6d-a8bd-0e6c50c81429" data-name="Mockup-V2.0">
    <g id="bb3f5166-da0c-4371-8b9f-96a451577ab4" data-name="V3">
      <g id="20aad792-e9a5-4612-8b9e-cf308f31d48f" data-name="Group">
        <circle id="e6132c61-55de-4d33-90d0-02b869baf5a3" data-name="Oval" cx="39" cy="39" r="37.5" style="fill:none;stroke-width:3px"/>
        <path id="7c21ae4b-6407-47e3-b14c-4a5b28d71362" data-name="Fill-1" d="M18.1,54.21l17-9A2,2,0,0,1,36,45H49.17L61.59,32.59a2,2,0,1,1,2.82,2.82l-18,18A2,2,0,0,1,45,54L34.85,49.82l-15,8A2.08,2.08,0,0,1,19,58a2,2,0,0,1-1.79-1.1,2.06,2.06,0,0,1-.21-1,2,2,0,0,1,1.1-1.73" transform="translate(-0.5 -0.5)" />
        <path id="9ce83643-8843-4e60-8a4e-9584de0476ac" data-name="Fill-4" d="M54.41,33.59a2,2,0,0,1,0,2.82l-6,6A2,2,0,0,1,47,43H34.47L19.9,50.75A2.08,2.08,0,0,1,19,51a2,2,0,0,1-1.79-1.1A2.08,2.08,0,0,1,17,49a2,2,0,0,1,1.11-1.86l15-8A1.94,1.94,0,0,1,34,39H46.17l5.42-5.41a2,2,0,0,1,2.82,0" transform="translate(-0.5 -0.5)" />
        <path id="6e1dbd4f-fc04-483a-addf-f62a6e4a418a" data-name="Fill-6" d="M57,33a4,4,0,1,1,4-4,4,4,0,0,1-4,4" transform="translate(-0.5 -0.5)" />
        <path id="ff7ea400-16a9-469b-8654-da85e0a744d3" data-name="Fill-8" d="M42,26.69a5.2,5.2,0,0,1,.07-.69H37a1,1,0,0,0-1,1V37H34V27a3,3,0,0,1,3-3h5.85A4.69,4.69,0,0,1,50,23.37L43.37,30A4.66,4.66,0,0,1,42,26.69" transform="translate(-0.5 -0.5)" />
      </g>
    </g>
  </g>
</svg>
