<svg id="ab3c6b4b-5768-4792-8f25-54ed29a9277d" data-name="Layer 1" xmlns="http://www.w3.org/2000/svg" xmlns:xlink="http://www.w3.org/1999/xlink" viewBox="0 0 30 30"><defs><mask id="6a88f919-be49-491f-a492-844c51fe7859" x="0" y="0" width="30" height="30" maskUnits="userSpaceOnUse"><g transform="translate(0)"><g id="91b55b69-f7d9-40c5-bfb4-674353d001b5" data-name="mask-2"><polygon id="3d97bd82-6f32-417a-9cce-ae5e8650dda8" data-name="path-1" points="0 0 30 0 30 30 0 30 0 0" style="fill:#fff"/></g></g></mask></defs><title>Twit</title><g id="684ab533-4ac7-43b5-8acb-c6191c735139" data-name="Mockup-V2.0"><g id="9382b40d-4c51-4f9c-8f3f-30778c786b95" data-name="V4"><g id="8f37c5c4-4396-4152-a030-e179e2fe7e62" data-name="Footer"><g id="71795def-b812-4f81-93b1-615ac2dd9b1c" data-name="Social"><g id="1227798e-9d74-4fe9-a21d-5ff3200c0bc6" data-name="Twit"><g style="mask:url(#6a88f919-be49-491f-a492-844c51fe7859)"><path id="9bdf8e7e-fedc-423a-8238-5feb970b159d" data-name="Combined-Shape" d="M26.34,30H3.66A3.66,3.66,0,0,1,0,26.34V3.66A3.66,3.66,0,0,1,3.66,0H26.34A3.66,3.66,0,0,1,30,3.66V26.34A3.66,3.66,0,0,1,26.34,30ZM5.27,7.89a4.64,4.64,0,0,0,1,5.83L4.46,13.2a4.64,4.64,0,0,0,3.32,4.32H6.12a4.43,4.43,0,0,0,3.93,3A8.7,8.7,0,0,1,3.87,22.3a.73.73,0,0,0,.24.2,11.92,11.92,0,0,0,5.05,1.69,11.76,11.76,0,0,0,7.52-1.59,12.27,12.27,0,0,0,6-10.58.89.89,0,0,1,.4-.78,7.28,7.28,0,0,0,1.72-1.85c-.44.14-.78.27-1.12.36s-.7.15-1.05.22a5,5,0,0,0,1.59-2.2c-.81.28-1.58.56-2.37.8a.68.68,0,0,1-.53-.14A4.15,4.15,0,0,0,17,7.51a4,4,0,0,0-2.84,3.3,11.84,11.84,0,0,0,0,1.7A12.5,12.5,0,0,1,5.27,7.89Z" transform="translate(0)" style="fill:#dcdcdc"/></g></g></g></g></g></g></svg>