<svg xmlns="http://www.w3.org/2000/svg" viewBox="0 0 114.02 114.02"><defs><style>.\36 b9fc6fa-10a2-4cdc-bc76-7b0862bd4482{fill:#747474;}</style></defs><title>Asset 1</title><g id="0e9fcb43-40d7-48f5-b9e3-9c495c5a5075" data-name="Layer 2"><g id="3663aaa3-a1e9-4c9c-8b40-20f09c5fe546" data-name="Layer 1"><path class="6b9fc6fa-10a2-4cdc-bc76-7b0862bd4482" d="M57,0a57,57,0,1,0,57,57A57,57,0,0,0,57,0Zm.37,43.47a5.34,5.34,0,0,1,4.77-2c3.75.46,3.09,3.36,3.27,4.58a5.15,5.15,0,0,0-3.47-2.73C60.3,43,58.2,42.64,57.38,43.47ZM76.88,76.9c-2.13-4.68-4.42-8.85-5.25-12.15a6,6,0,0,0,5-.14,21.38,21.38,0,0,1,0,7.11A13,13,0,0,0,76.88,76.9ZM84,103.21c-.19-3.42-3-14.64-3.79-17.5a48.74,48.74,0,0,0-2.11-6.1,5.82,5.82,0,0,0,3.48,2.6c4.37,1.1,5.42-4.32.84-9.37a16,16,0,0,1-4-9.24,22.1,22.1,0,0,0,4.23-3.9c-21,5.79-20-7.86-20-7.86.23,6.45,10.16,6.23,10.16,6.23h.07C75.21,55.3,80.61,53.6,91.16,55c0,0-3.61-10.87-15.21-11.89-6.88-.61-8.44,4.59-8.44,4.59s-.79-5.85,7.94-6.2S79.71,33,74.39,29.4s-2.54-4.58-4.88-4.48,1.16,2.5.05,2.64-12-15.19-15.23-16.62-1.34,1.65,0,2.32,7.44,8.9,5.16,9.63-5.26,2-10.09-3.89-8.13-8.54-13-8.84S34,12,37.85,14.27,42.72,17.81,42.7,20a4.57,4.57,0,0,0,4,4.19s-2.07,1.38-6.81-2-6.68-5.84-10-6.51S22.82,28.19,31.06,33c4.83,2.85,6.85,3.49,7.7,3.54a11.22,11.22,0,0,1-5,.28s1.94,3.4,9,1.56,12.68.12,10.62,2.43A72.51,72.51,0,0,0,39.25,65c-4,11.75-4.6,23.09-12,29.12-.91,1.84-1.87,3.59-2.85,5.25A53.48,53.48,0,1,1,84,103.21Z"/></g></g></svg>
